<?xml version="1.0" encoding="UTF-8" standalone="no"?>
<svg
   height="48"
   width="48"
   version="1.1"
   id="svg20711"
   sodipodi:docname="add.svg"
   inkscape:version="1.2.2 (b0a8486, 2022-12-01)"
   xmlns:inkscape="http://www.inkscape.org/namespaces/inkscape"
   xmlns:sodipodi="http://sodipodi.sourceforge.net/DTD/sodipodi-0.dtd"
   xmlns="http://www.w3.org/2000/svg"
   xmlns:svg="http://www.w3.org/2000/svg">
  <defs
     id="defs20715" />
  <sodipodi:namedview
     id="namedview20713"
     pagecolor="#ffffff"
     bordercolor="#000000"
     borderopacity="0.25"
     inkscape:showpageshadow="2"
     inkscape:pageopacity="0.0"
     inkscape:pagecheckerboard="0"
     inkscape:deskcolor="#d1d1d1"
     showgrid="false"
     inkscape:zoom="18.291667"
     inkscape:cx="24"
     inkscape:cy="26.405467"
     inkscape:window-width="1920"
     inkscape:window-height="992"
     inkscape:window-x="1920"
     inkscape:window-y="0"
     inkscape:window-maximized="1"
     inkscape:current-layer="svg20711" />
  <path
     d="M22.65 34h3v-8.3H34v-3h-8.35V14h-3v8.7H14v3h8.65ZM24 44q-4.1 0-7.75-1.575-3.65-1.575-6.375-4.3-2.725-2.725-4.3-6.375Q4 28.1 4 23.95q0-4.1 1.575-7.75 1.575-3.65 4.3-6.35 2.725-2.7 6.375-4.275Q19.9 4 24.05 4q4.1 0 7.75 1.575 3.65 1.575 6.35 4.275 2.7 2.7 4.275 6.35Q44 19.85 44 24q0 4.1-1.575 7.75-1.575 3.65-4.275 6.375t-6.35 4.3Q28.15 44 24 44Zm.05-3q7.05 0 12-4.975T41 23.95q0-7.05-4.95-12T24 7q-7.05 0-12.025 4.95Q7 16.9 7 24q0 7.05 4.975 12.025Q16.95 41 24.05 41ZM24 24Z"
     id="path20709"
     style="fill:#7fa8e6;fill-opacity:1" />
</svg>
