<?xml version="1.0" encoding="UTF-8" standalone="no"?>
<svg
   height="48"
   width="48"
   version="1.1"
   id="svg14290"
   sodipodi:docname="save.svg"
   inkscape:version="1.2.2 (b0a8486, 2022-12-01)"
   xmlns:inkscape="http://www.inkscape.org/namespaces/inkscape"
   xmlns:sodipodi="http://sodipodi.sourceforge.net/DTD/sodipodi-0.dtd"
   xmlns="http://www.w3.org/2000/svg"
   xmlns:svg="http://www.w3.org/2000/svg">
  <defs
     id="defs14294" />
  <sodipodi:namedview
     id="namedview14292"
     pagecolor="#ffffff"
     bordercolor="#000000"
     borderopacity="0.25"
     inkscape:showpageshadow="2"
     inkscape:pageopacity="0.0"
     inkscape:pagecheckerboard="0"
     inkscape:deskcolor="#d1d1d1"
     showgrid="false"
     inkscape:zoom="18.291667"
     inkscape:cx="24"
     inkscape:cy="24"
     inkscape:window-width="1920"
     inkscape:window-height="1052"
     inkscape:window-x="0"
     inkscape:window-y="0"
     inkscape:window-maximized="1"
     inkscape:current-layer="svg14290" />
  <path
     d="M42 13.85V39q0 1.2-.9 2.1-.9.9-2.1.9H9q-1.2 0-2.1-.9Q6 40.2 6 39V9q0-1.2.9-2.1Q7.8 6 9 6h25.15Zm-3 1.35L32.8 9H9v30h30ZM24 35.75q2.15 0 3.675-1.525T29.2 30.55q0-2.15-1.525-3.675T24 25.35q-2.15 0-3.675 1.525T18.8 30.55q0 2.15 1.525 3.675T24 35.75ZM11.65 18.8h17.9v-7.15h-17.9ZM9 15.2V39 9Z"
     id="path14288"
     style="fill:#66a3ff;fill-opacity:1" />
</svg>
